<?xml version="1.0" encoding="UTF-8" standalone="no"?>
<!DOCTYPE svg PUBLIC "-//W3C//DTD SVG 1.1//EN"
 "http://www.w3.org/Graphics/SVG/1.1/DTD/svg11.dtd">
<!-- Generated by graphviz version 2.38.0 (20140413.2041)
 -->
<!-- Title: %3 Pages: 1 -->
<svg width="678pt" height="441pt"
 viewBox="0.00 0.00 677.84 441.00" xmlns="http://www.w3.org/2000/svg" xmlns:xlink="http://www.w3.org/1999/xlink">
<g id="graph0" class="graph" transform="scale(1 1) rotate(0) translate(4 437)">
<title>%3</title>
<polygon fill="white" stroke="none" points="-4,4 -4,-437 673.839,-437 673.839,4 -4,4"/>
<!-- packages -->
<g id="node1" class="node"><title>packages</title>
<polygon fill="none" stroke="black" points="405.293,-433 339.293,-433 339.293,-367 405.293,-367 405.293,-433"/>
<text text-anchor="middle" x="372.293" y="-396.3" font-family="Times,serif" font-size="14.00">packages</text>
</g>
<!-- com.adwo.adsdk -->
<g id="node2" class="node"><title>com.adwo.adsdk</title>
<ellipse fill="red" stroke="black" cx="304.293" cy="-313" rx="70.6878" ry="18"/>
<text text-anchor="middle" x="304.293" y="-309.3" font-family="Times,serif" font-size="14.00">com.adwo.adsdk</text>
</g>
<!-- packages&#45;&#45;com.adwo.adsdk -->
<g id="edge1" class="edge"><title>packages&#45;&#45;com.adwo.adsdk</title>
<path fill="none" stroke="black" d="M346.585,-366.865C336.806,-354.642 326.053,-341.2 317.837,-330.93"/>
</g>
<!-- com.test -->
<g id="node11" class="node"><title>com.test</title>
<ellipse fill="none" stroke="black" cx="441.293" cy="-313" rx="40.8928" ry="18"/>
<text text-anchor="middle" x="441.293" y="-309.3" font-family="Times,serif" font-size="14.00">com.test</text>
</g>
<!-- packages&#45;&#45;com.test -->
<g id="edge10" class="edge"><title>packages&#45;&#45;com.test</title>
<path fill="none" stroke="black" d="M398.379,-366.865C408.454,-354.454 419.549,-340.786 427.933,-330.458"/>
</g>
<!-- classcom.adwo.adsdk -->
<g id="node3" class="node"><title>classcom.adwo.adsdk</title>
<polygon fill="none" stroke="black" points="310.793,-259 267.793,-259 267.793,-216 310.793,-216 310.793,-259"/>
<text text-anchor="middle" x="289.293" y="-233.8" font-family="Times,serif" font-size="14.00">class</text>
</g>
<!-- com.adwo.adsdk&#45;&#45;classcom.adwo.adsdk -->
<g id="edge2" class="edge"><title>com.adwo.adsdk&#45;&#45;classcom.adwo.adsdk</title>
<path fill="none" stroke="black" d="M300.814,-294.953C298.633,-284.266 295.808,-270.424 293.501,-259.12"/>
</g>
<!-- AdwoAdBroswerActivity -->
<g id="node4" class="node"><title>AdwoAdBroswerActivity</title>
<ellipse fill="red" stroke="black" cx="229.293" cy="-162" rx="101.282" ry="18"/>
<text text-anchor="middle" x="229.293" y="-158.3" font-family="Times,serif" font-size="14.00">AdwoAdBroswerActivity</text>
</g>
<!-- classcom.adwo.adsdk&#45;&#45;AdwoAdBroswerActivity -->
<g id="edge3" class="edge"><title>classcom.adwo.adsdk&#45;&#45;AdwoAdBroswerActivity</title>
<path fill="none" stroke="black" d="M272.26,-215.634C263.113,-204.43 251.976,-190.786 243.332,-180.198"/>
</g>
<!-- importsAdwoAdBroswerActivity -->
<g id="node5" class="node"><title>importsAdwoAdBroswerActivity</title>
<ellipse fill="none" stroke="black" cx="104.293" cy="-90" rx="38.1938" ry="18"/>
<text text-anchor="middle" x="104.293" y="-86.3" font-family="Times,serif" font-size="14.00">imports</text>
</g>
<!-- AdwoAdBroswerActivity&#45;&#45;importsAdwoAdBroswerActivity -->
<g id="edge4" class="edge"><title>AdwoAdBroswerActivity&#45;&#45;importsAdwoAdBroswerActivity</title>
<path fill="none" stroke="black" d="M199.986,-144.588C178.049,-132.303 148.427,-115.715 127.979,-104.264"/>
</g>
<!-- methodsAdwoAdBroswerActivity -->
<g id="node7" class="node"><title>methodsAdwoAdBroswerActivity</title>
<ellipse fill="none" stroke="black" cx="225.293" cy="-90" rx="40.8928" ry="18"/>
<text text-anchor="middle" x="225.293" y="-86.3" font-family="Times,serif" font-size="14.00">methods</text>
</g>
<!-- AdwoAdBroswerActivity&#45;&#45;methodsAdwoAdBroswerActivity -->
<g id="edge6" class="edge"><title>AdwoAdBroswerActivity&#45;&#45;methodsAdwoAdBroswerActivity</title>
<path fill="none" stroke="black" d="M228.304,-143.697C227.684,-132.846 226.888,-118.917 226.27,-108.104"/>
</g>
<!-- attributesAdwoAdBroswerActivity -->
<g id="node9" class="node"><title>attributesAdwoAdBroswerActivity</title>
<ellipse fill="none" stroke="black" cx="327.293" cy="-90" rx="43.5923" ry="18"/>
<text text-anchor="middle" x="327.293" y="-86.3" font-family="Times,serif" font-size="14.00">attributes</text>
</g>
<!-- AdwoAdBroswerActivity&#45;&#45;attributesAdwoAdBroswerActivity -->
<g id="edge8" class="edge"><title>AdwoAdBroswerActivity&#45;&#45;attributesAdwoAdBroswerActivity</title>
<path fill="none" stroke="black" d="M252.518,-144.411C268.819,-132.767 290.441,-117.323 306.239,-106.038"/>
</g>
<!-- com.adwo.adsdk.H -->
<g id="node6" class="node"><title>com.adwo.adsdk.H</title>
<ellipse fill="none" stroke="black" cx="79.293" cy="-18" rx="79.0865" ry="18"/>
<text text-anchor="middle" x="79.293" y="-14.3" font-family="Times,serif" font-size="14.00">com.adwo.adsdk.H</text>
</g>
<!-- importsAdwoAdBroswerActivity&#45;&#45;com.adwo.adsdk.H -->
<g id="edge5" class="edge"><title>importsAdwoAdBroswerActivity&#45;&#45;com.adwo.adsdk.H</title>
<path fill="none" stroke="black" d="M98.2412,-72.055C94.3683,-61.2111 89.3583,-47.183 85.4627,-36.2753"/>
</g>
<!-- Constructor -->
<g id="node8" class="node"><title>Constructor</title>
<ellipse fill="red" stroke="black" cx="228.293" cy="-18" rx="51.9908" ry="18"/>
<text text-anchor="middle" x="228.293" y="-14.3" font-family="Times,serif" font-size="14.00">Constructor</text>
</g>
<!-- methodsAdwoAdBroswerActivity&#45;&#45;Constructor -->
<g id="edge7" class="edge"><title>methodsAdwoAdBroswerActivity&#45;&#45;Constructor</title>
<path fill="none" stroke="black" d="M226.035,-71.6966C226.5,-60.8463 227.097,-46.9167 227.56,-36.1043"/>
</g>
<!-- d -->
<g id="node10" class="node"><title>d</title>
<ellipse fill="red" stroke="black" cx="327.293" cy="-18" rx="27" ry="18"/>
<text text-anchor="middle" x="327.293" y="-14.3" font-family="Times,serif" font-size="14.00">d</text>
</g>
<!-- attributesAdwoAdBroswerActivity&#45;&#45;d -->
<g id="edge9" class="edge"><title>attributesAdwoAdBroswerActivity&#45;&#45;d</title>
<path fill="none" stroke="black" d="M327.293,-71.6966C327.293,-60.8463 327.293,-46.9167 327.293,-36.1043"/>
</g>
<!-- classcom.test -->
<g id="node12" class="node"><title>classcom.test</title>
<polygon fill="none" stroke="black" points="492.793,-259 449.793,-259 449.793,-216 492.793,-216 492.793,-259"/>
<text text-anchor="middle" x="471.293" y="-233.8" font-family="Times,serif" font-size="14.00">class</text>
</g>
<!-- com.test&#45;&#45;classcom.test -->
<g id="edge11" class="edge"><title>com.test&#45;&#45;classcom.test</title>
<path fill="none" stroke="black" d="M448.251,-294.953C452.613,-284.266 458.263,-270.424 462.876,-259.12"/>
</g>
<!-- NeverHearder -->
<g id="node13" class="node"><title>NeverHearder</title>
<ellipse fill="red" stroke="black" cx="475.293" cy="-162" rx="60.3893" ry="18"/>
<text text-anchor="middle" x="475.293" y="-158.3" font-family="Times,serif" font-size="14.00">NeverHearder</text>
</g>
<!-- classcom.test&#45;&#45;NeverHearder -->
<g id="edge12" class="edge"><title>classcom.test&#45;&#45;NeverHearder</title>
<path fill="none" stroke="black" d="M472.429,-215.634C473.038,-204.43 473.781,-190.786 474.357,-180.198"/>
</g>
<!-- importsNeverHearder -->
<g id="node14" class="node"><title>importsNeverHearder</title>
<ellipse fill="none" stroke="black" cx="427.293" cy="-90" rx="38.1938" ry="18"/>
<text text-anchor="middle" x="427.293" y="-86.3" font-family="Times,serif" font-size="14.00">imports</text>
</g>
<!-- NeverHearder&#45;&#45;importsNeverHearder -->
<g id="edge13" class="edge"><title>NeverHearder&#45;&#45;importsNeverHearder</title>
<path fill="none" stroke="black" d="M463.674,-144.055C456.016,-132.887 446.042,-118.343 438.475,-107.307"/>
</g>
<!-- methodsNeverHearder -->
<g id="node15" class="node"><title>methodsNeverHearder</title>
<ellipse fill="none" stroke="black" cx="524.293" cy="-90" rx="40.8928" ry="18"/>
<text text-anchor="middle" x="524.293" y="-86.3" font-family="Times,serif" font-size="14.00">methods</text>
</g>
<!-- NeverHearder&#45;&#45;methodsNeverHearder -->
<g id="edge14" class="edge"><title>NeverHearder&#45;&#45;methodsNeverHearder</title>
<path fill="none" stroke="black" d="M487.154,-144.055C494.972,-132.887 505.153,-118.343 512.878,-107.307"/>
</g>
<!-- attributesNeverHearder -->
<g id="node17" class="node"><title>attributesNeverHearder</title>
<ellipse fill="none" stroke="black" cx="626.293" cy="-90" rx="43.5923" ry="18"/>
<text text-anchor="middle" x="626.293" y="-86.3" font-family="Times,serif" font-size="14.00">attributes</text>
</g>
<!-- NeverHearder&#45;&#45;attributesNeverHearder -->
<g id="edge16" class="edge"><title>NeverHearder&#45;&#45;attributesNeverHearder</title>
<path fill="none" stroke="black" d="M506.58,-146.496C533.532,-134.002 572.09,-116.127 598.101,-104.069"/>
</g>
<!-- a(string) -->
<g id="node16" class="node"><title>a(string)</title>
<ellipse fill="red" stroke="black" cx="524.293" cy="-18" rx="40.0939" ry="18"/>
<text text-anchor="middle" x="524.293" y="-14.3" font-family="Times,serif" font-size="14.00">a(string)</text>
</g>
<!-- methodsNeverHearder&#45;&#45;a(string) -->
<g id="edge15" class="edge"><title>methodsNeverHearder&#45;&#45;a(string)</title>
<path fill="none" stroke="black" d="M524.293,-71.6966C524.293,-60.8463 524.293,-46.9167 524.293,-36.1043"/>
</g>
</g>
</svg>
